<svg xmlns="http://www.w3.org/2000/svg" xmlns:xlink="http://www.w3.org/1999/xlink" viewBox="0 0 38 38"><defs><style>.a{fill:#e8e7ff;}.b{fill:url(#a);}</style><linearGradient id="a" x2="0" y2="1" gradientUnits="objectBoundingBox"><stop offset="0" stop-color="#8280ff"/><stop offset="1" stop-color="#7e96ff"/></linearGradient></defs><circle class="a" cx="19" cy="19" r="19"/><path class="b" d="M12,16V14H10V12h2V10h2v2h2v2H14v2ZM0,16V15a4.951,4.951,0,0,1,5-5H8v2H5a2.91,2.91,0,0,0-2.8,2H8v2ZM3,5V4a4,4,0,0,1,8,0V5A4,4,0,0,1,3,5ZM5,4V5A2,2,0,1,0,9,5V4A2,2,0,0,0,5,4Z" transform="translate(11 11)"/></svg>