<svg xmlns="http://www.w3.org/2000/svg" viewBox="0 0 38 38"><defs><style>.a{fill:#fff;stroke:#56d9fe;}.b{fill:#56d9fe;}.c{stroke:none;}.d{fill:none;}</style></defs><g class="a"><circle class="c" cx="19" cy="19" r="19"/><circle class="d" cx="19" cy="19" r="18.5"/></g><path class="b" d="M3.167,16A3.359,3.359,0,0,1,.4,14.5a3.02,3.02,0,0,1,0-3l3.514-6A1.136,1.136,0,0,1,4.871,5H9.129a1.135,1.135,0,0,1,.958.5l3.514,6a3.013,3.013,0,0,1,0,3A3.359,3.359,0,0,1,10.832,16Zm1.7-13a1,1,0,0,1-.745-.3l-1.065-1A.975.975,0,0,1,3.806,0h6.387a.993.993,0,0,1,.745,1.7l-1.065,1a1,1,0,0,1-.745.3Z" transform="translate(12 11)"/></svg>